<svg xmlns="http://www.w3.org/2000/svg" xmlns:xlink="http://www.w3.org/1999/xlink"><symbol id="sprite-3d" viewBox="0 0 1024 1024"><title>3d</title><path d="M654.883 1023.999H369.115c-258.62 0-369.116-110.496-369.116-369.116V369.115C-.001 110.495 110.495-.001 369.115-.001h285.768c258.62 0 369.116 110.496 369.116 369.116v285.768c0 258.62-110.496 369.116-369.116 369.116zM369.117 71.441c-219.565 0-297.674 78.11-297.674 297.674v285.768c0 219.565 78.11 297.674 297.674 297.674h285.768c219.565 0 297.674-78.11 297.674-297.674V369.115c0-219.565-78.11-297.674-297.674-297.674H369.117z"/><path d="M512.029 563.423c-6.192 0-12.383-1.428-18.098-4.763L241.504 412.919c-17.146-10.002-22.863-31.91-12.86-48.58 10.002-17.146 31.911-22.862 48.581-12.859l234.329 135.74 232.9-134.787c17.146-10.002 39.055-3.811 48.58 12.859s3.811 39.055-12.859 48.58L529.652 558.661c-5.239 2.858-11.431 4.763-17.623 4.763z"/><path d="M512 822.538c-19.528 0-35.721-16.193-35.721-35.721V527.721C476.279 508.193 492.472 492 512 492s35.721 16.193 35.721 35.721v259.096c0 19.528-16.193 35.721-35.721 35.721z"/><path d="M512.009 833.478c-27.624 0-54.768-6.192-76.677-18.098L282.92 730.602c-45.723-25.243-80.968-85.73-80.968-138.121V431.022c0-51.914 35.722-112.402 80.968-138.121l152.412-84.778c43.818-24.29 109.54-24.29 153.357 0l152.409 84.778c45.723 25.243 80.972 85.73 80.972 138.121v161.459c0 51.915-35.726 112.402-80.972 138.121L588.689 815.38c-21.909 12.383-49.057 18.098-76.681 18.098zm0-571.535c-15.717 0-30.959 2.858-41.913 9.05l-152.407 84.778c-23.337 12.859-44.296 49.057-44.296 75.252v161.459c0 26.671 20.957 62.393 44.296 75.252l152.407 84.778c21.909 12.383 61.916 12.383 83.825 0l152.409-84.778c23.337-12.859 44.299-49.057 44.299-75.252V431.023c0-26.671-20.961-62.393-44.299-75.252l-152.409-84.778c-10.954-6.192-26.195-9.05-41.913-9.05z"/></symbol><symbol id="sprite-chevron-right" viewBox="0 0 1024 1024"><title>chevron-right</title><path d="M234.791 29.992c39.99-39.99 104.826-39.99 144.816 0l409.601 409.601c39.989 39.99 39.989 104.826 0 144.816L379.607 994.01c-39.99 39.986-104.826 39.986-144.816 0-39.99-39.99-39.99-104.826 0-144.816l337.194-337.193-337.194-337.193c-39.99-39.99-39.99-104.826 0-144.816z"/></symbol><symbol id="sprite-discount" viewBox="0 0 1024 1024"><title>discount</title><path d="M512 1023.286c-30.006 0-58.106-11.426-79.062-32.859l-72.394-72.394c-5.715-5.715-20.956-11.907-28.578-11.907H229.09c-61.916 0-111.926-50.014-111.926-111.93V691.324c0-7.62-6.192-22.862-11.907-28.577l-72.394-72.394C11.907 569.397 0 541.292 0 511.286s11.431-58.106 32.863-79.062l72.394-72.395c5.715-5.715 11.907-20.955 11.907-28.575V228.382c0-61.916 50.01-111.93 111.926-111.93h102.876c7.62 0 22.862-6.192 28.578-11.907l72.394-72.395c41.913-41.913 116.212-41.913 158.125 0l72.394 72.395c5.715 5.715 20.956 11.907 28.577 11.907H794.91c61.916 0 111.926 50.014 111.926 111.93v102.872c0 7.62 6.192 22.861 11.907 28.575l72.394 72.395c20.956 20.956 32.863 49.057 32.863 79.062s-11.431 58.111-32.863 79.067l-72.394 72.394c-5.715 5.715-11.907 20.956-11.907 28.577v102.872c0 61.916-50.01 111.93-111.926 111.93H692.034c-7.62 0-22.862 6.192-28.577 11.907l-72.394 72.394c-20.956 21.432-49.057 32.859-79.062 32.859zm-356.257-411.03c19.051 19.051 32.863 52.396 32.863 79.067v102.872c0 22.385 18.099 40.488 40.484 40.488h102.876c26.671 0 60.012 13.808 79.062 32.859l72.394 72.394c15.241 15.241 41.913 15.241 57.154 0l72.394-72.394c19.051-19.051 52.391-32.859 79.062-32.859h102.876c22.385 0 40.484-18.103 40.484-40.488V691.323c0-26.671 13.812-60.016 32.863-79.067l72.394-72.394c7.62-7.62 11.907-17.623 11.907-28.577s-4.286-20.951-11.907-28.572l-72.394-72.397c-19.051-19.051-32.863-52.393-32.863-79.064V228.38c0-22.385-18.098-40.488-40.484-40.488H692.032c-26.671 0-60.011-13.809-79.062-32.861l-72.394-72.395c-15.241-15.241-41.913-15.241-57.154 0l-72.394 72.395c-19.051 19.051-52.391 32.861-79.062 32.861H229.09c-22.385 0-40.484 18.103-40.484 40.488v102.872c0 26.671-13.812 60.013-32.863 79.064l-72.394 72.397c-7.62 7.62-11.907 17.617-11.907 28.572s4.286 20.956 11.907 28.577l72.394 72.394z"/><path d="M654.894 701.782c-26.671 0-48.104-21.432-48.104-47.628s21.432-47.628 47.628-47.628c26.195 0 47.628 21.432 47.628 47.628s-20.956 47.628-47.152 47.628zM369.593 416.014c-26.671 0-48.104-21.432-48.104-47.628s21.432-47.628 47.628-47.628c26.195 0 47.628 21.432 47.628 47.628s-20.956 47.628-47.152 47.628zm-.503 273.837c-9.05 0-18.098-3.334-25.243-10.478-13.812-13.812-13.812-36.674 0-50.485l285.77-285.77c13.812-13.812 36.674-13.812 50.485 0s13.812 36.677 0 50.489l-285.77 285.767c-7.144 7.144-16.193 10.478-25.243 10.478z"/></symbol><symbol id="sprite-key" viewBox="0 0 1024 1024"><title>key</title><path d="M87.858 87.857C151.417 24.299 246.524-.001 369.116-.001h285.768c122.594 0 217.703 24.3 281.257 87.858C999.701 151.416 1024 246.523 1024 369.115v285.768c0 122.594-24.299 217.703-87.859 281.257-63.554 63.56-158.663 87.859-281.257 87.859H369.116c-122.593 0-217.701-24.299-281.258-87.859C24.3 872.586 0 777.477 0 654.883V369.115C0 246.522 24.3 151.414 87.858 87.857zm50.517 50.517C94.77 181.979 71.442 253.569 71.442 369.115v285.768c0 115.545 23.328 187.135 66.933 230.743 43.605 43.603 115.195 66.931 230.741 66.931h285.768c115.545 0 187.135-23.328 230.743-66.931 43.603-43.608 66.931-115.197 66.931-230.743V369.115c0-115.547-23.328-187.137-66.931-230.741-43.608-43.605-115.197-66.933-230.743-66.933H369.116c-115.547 0-187.137 23.328-230.741 66.933z"/><path d="M690.668 333.966c63.007 62.616 63.24 165.708-.119 229.497-44.141 44.113-107.315 57.744-163.064 40.203a35.706 35.706 0 00-35.931 8.768l-123.356 122.88-.3.3a5.787 5.787 0 01-.358.219c-.71.414-1.801.929-3.177 1.381-1.369.448-2.675.719-3.73.838-.672.076-1.061.072-1.174.072l-57.835-7.71c.001 0 .006 0 0 0-.133-.034-2.06-.519-4.555-3.053-2.473-2.519-3.4-4.939-3.593-5.849l-7.544-56.582-.029-.2c.006-.129.021-.348.06-.657.121-.958.406-2.291.921-3.82.512-1.524 1.133-2.891 1.729-3.949.345-.614.601-.981.719-1.143l122.19-122.189a35.722 35.722 0 008.883-35.764c-17.254-56.076-3.842-119.302 40.174-163.319 63.167-63.165 166.343-63.275 230.088.078zm50.361-50.672c-91.522-90.961-239.816-91.073-330.967.077-58.024 58.024-78.911 138.891-63.435 213.465L237.452 606.028c-8.746 9.231-14.721 20.856-18.287 31.463-3.489 10.378-5.986 23.705-4.011 37.164l7.583 56.867.102.71c2.738 17.804 11.852 33.582 23.29 45.218 11.41 11.602 27.461 21.409 46.471 23.833l56.822 7.573c13.116 1.882 26.326-.195 37.189-3.753 10.661-3.495 22.806-9.649 32.295-19.465l108.605-108.187c74.809 15.87 155.69-5.605 213.592-63.511l.081-.076c90.917-91.479 91.14-239.834-.158-330.568z"/><path d="M372.582 649.483c14.031-13.869 36.648-13.736 50.516.296l40.485 40.96c13.869 14.031 13.735 36.65-.295 50.514-14.031 13.869-36.648 13.736-50.516-.296l-40.485-40.96c-13.868-14.031-13.736-36.645.295-50.514zM530.79 450.084c0-26.304 21.323-47.627 47.627-47.627h.429c26.305 0 47.627 21.324 47.627 47.627s-21.323 47.627-47.627 47.627h-.429c-26.305 0-47.627-21.323-47.627-47.627z"/></symbol><symbol id="sprite-logo" viewBox="0 0 1024 1024"><title>logo</title><path d="M511.998 1024c-32.259 0-65.003-7.221-90.517-22.15L156.663 849.221C48.81 776.514 42.069 765.442 42.069 651.329V373.032c0-114.113 6.26-125.188 112.187-196.928L420.998 22.029c50.557-29.37 130.001-29.37 180.558 0l265.781 153.112c107.851 72.703 114.595 83.777 114.595 197.892V650.85c0 114.111-6.262 125.185-112.187 196.927L603 1001.85c-26 14.928-58.74 22.15-91 22.15zm0-951.418c-20.222 0-39.963 3.853-53.929 12.038L193.252 237.732c-78.482 52.962-78.482 52.962-78.482 135.298v277.817c0 82.332 0 82.332 80.407 136.741l262.889 151.669c28.408 16.369 79.928 16.369 108.337 0L831.22 786.145c78.002-52.966 78.002-52.966 78.002-135.298V373.03c0-82.334 0-82.334-80.405-136.744L565.924 84.617c-13.964-8.185-33.707-12.038-53.929-12.038z"/><path d="M511.989 692.746c-99.667 0-180.556-80.89-180.556-180.556s80.89-180.556 180.556-180.556c99.667 0 180.556 80.89 180.556 180.556s-80.89 180.556-180.556 180.556zm0-288.893c-59.706 0-108.337 48.631-108.337 108.337s48.631 108.337 108.337 108.337 108.337-48.631 108.337-108.337-48.631-108.337-108.337-108.337z"/></symbol><symbol id="sprite-message" viewBox="0 0 1024 1024"><title>message</title><path d="M321.488 1003.282c-13.336 0-27.149-3.334-39.532-10.002-27.148-14.289-43.817-42.865-43.817-73.347v-67.627C94.303 837.541 0 731.802 0 580.346V294.58C0 130.74 110.02 20.72 273.86 20.72h476.28c163.84 0 273.86 110.02 273.86 273.86v285.766c0 163.84-110.02 273.86-273.86 273.86H570.583L367.687 989.474c-13.812 9.05-30.004 13.808-46.198 13.808zM273.861 91.685c-122.88 0-202.418 79.539-202.418 202.418v285.771c0 122.88 79.539 202.418 202.418 202.418 19.528 0 35.721 16.193 35.721 35.721v101.448c0 6.192 3.811 9.05 6.192 10.478s7.144 2.858 12.383-.476l211.944-140.979c5.715-3.811 12.859-6.192 20.004-6.192h190.512c122.88 0 202.418-79.539 202.418-202.418V294.103c0-122.88-79.539-202.418-202.418-202.418H273.862z"/><path d="M511.991 517.001c-19.528 0-35.721-16.193-35.721-35.721v-10.002c0-55.249 40.484-82.397 55.724-92.875 17.623-11.907 23.337-20.004 23.337-32.386 0-23.814-19.528-43.343-43.341-43.343s-43.341 19.529-43.341 43.343c0 19.528-16.193 35.721-35.721 35.721-19.526 0-35.719-16.193-35.719-35.721 0-63.345 51.436-114.785 114.782-114.785s114.784 51.44 114.784 114.785c0 54.296-40.007 81.444-54.772 91.445-18.575 12.383-24.29 20.48-24.29 33.816v10.002c0 20.004-16.193 35.721-35.721 35.721zM512 635.604c-20.004 0-35.721-16.193-35.721-35.721s16.193-35.721 35.721-35.721c19.528 0 35.721 16.193 35.721 35.721S532.004 635.604 512 635.604z"/></symbol><symbol class="ldi-47ibm8" preserveAspectRatio="xMidYMid" style="width:525px;webkit-user-select:none;webkit-transform-origin:262.5px 262.5px;webkit-perspective-origin:262.5px 262.5px;webkit-logical-width:525px;webkit-logical-height:525px;user-select:none;transform-origin:262.5px 262.5px;r:0;perspective-origin:262.5px 262.5px;overflow-y:hidden;overflow-x:hidden;inline-size:525px;height:525px;d:none;block-size:525px;background:0 0/auto padding-box border-box" pointer-events="all" overflow="hidden" display="block" id="sprite-ok" viewBox="0 0 100 100"><title>ok</title><svg version="1.1" id="圖層_1" xmlns="http://www.w3.org/2000/svg" x="0" y="0" viewBox="0 0 100 100" xml:space="preserve" style="x:0;webkit-user-select:none;webkit-transform-origin:50px 50px;webkit-perspective-origin:0 0;user-select:none;transform-origin:50px 50px;r:0;perspective-origin:0 0;overflow-y:hidden;overflow-x:hidden" pointer-events="all" overflow="hidden" display="block"><g style="x:0;webkit-user-select:none;webkit-transform-origin:50px 50px;webkit-perspective-origin:0 0;user-select:none;transform-origin:50px 50px;r:0;perspective-origin:0 0"><g style="x:0;webkit-user-select:none;webkit-transform-origin:50px 50px;webkit-transform:matrix(.7,0,0,.7,0,0);webkit-perspective-origin:0 0;user-select:none;transform-origin:50px 50px;r:0;perspective-origin:0 0"><g style="x:0;webkit-user-select:none;webkit-transform-origin:50px 50px;webkit-perspective-origin:0 0;user-select:none;transform-origin:50px 50px;r:0;perspective-origin:0 0"><g style="webkit-user-select:none;webkit-perspective-origin:0 0;user-select:none;perspective-origin:0 0" transform="scale(.7)"><style/><g style="y:0;x:0;webkit-user-select:none;webkit-transform-origin:50px 50px;webkit-perspective-origin:0 0;webkit-animation-duration:2.2s;webkit-animation-delay:.169231s;webkit-animation:2.2s ease .169231s 1 normal none running none;user-select:none;transform-origin:50px 50px;r:0;perspective-origin:0 0;d:none"><circle cx="50" cy="50" r="40" stroke="#3c3" style="webkit-user-select:none;webkit-perspective-origin:0 0;user-select:none;r:40px;perspective-origin:0 0;cy:50px;cx:50px" stroke-width="8" stroke-miterlimit="10" fill="none"/></g><g style="x:0;webkit-user-select:none;webkit-transform-origin:50px 50px;webkit-perspective-origin:0 0;user-select:none;transform-origin:50px 50px;r:0;perspective-origin:0 0"><g style="webkit-user-select:none;webkit-perspective-origin:0 0;user-select:none;perspective-origin:0 0"><g style="y:0;x:0;webkit-user-select:none;webkit-transform-origin:50px 50px;webkit-perspective-origin:0 0;webkit-animation-duration:2.2s;webkit-animation-delay:.338462s;webkit-animation:2.2s ease .338462s 1 normal none running none;user-select:none;transform-origin:50px 50px;r:0;perspective-origin:0 0;d:none" class="ld"><path fill="#3c3" style="webkit-user-select:none;webkit-perspective-origin:0 0;user-select:none;r:0;perspective-origin:0 0" d="M43.7 69.4L25 47.7l3.9-3.9 14.8 12.6 28.6-25.8 2.7 2.7z"/></g></g></g></g></g></g></g><style>@keyframes ldt-bounce-in{0%{-webkit-transform:scale(0);transform:scale(0)}5%{-webkit-transform:scale(.0846);transform:scale(.0846)}6%{-webkit-transform:scale(.191);transform:scale(.191)}7%{-webkit-transform:scale(.3255);transform:scale(.3255)}8%{-webkit-transform:scale(.4804);transform:scale(.4804)}9%{-webkit-transform:scale(.646);transform:scale(.646)}10%{-webkit-transform:scale(.8116);transform:scale(.8116)}11%{-webkit-transform:scale(.9665);transform:scale(.9665)}12%{-webkit-transform:scale(1.1);transform:scale(1.1)}13%{-webkit-transform:scale(1.2069);transform:scale(1.2069)}14%{-webkit-transform:scale(1.2796);transform:scale(1.2796)}19%{-webkit-transform:scale(1.1558);transform:scale(1.1558)}20%{-webkit-transform:scale(1.07);transform:scale(1.07)}21%{-webkit-transform:scale(.9823);transform:scale(.9823)}22%{-webkit-transform:scale(.901);transform:scale(.901)}23%{-webkit-transform:scale(.8328);transform:scale(.8328)}25%{-webkit-transform:scale(.7551);transform:scale(.7551)}29%{-webkit-transform:scale(.8516);transform:scale(.8516)}31%{-webkit-transform:scale(.973);transform:scale(.973)}33%{-webkit-transform:scale(1.0857);transform:scale(1.0857)}35%{-webkit-transform:scale(1.1538);transform:scale(1.1538)}40%{-webkit-transform:scale(1.0771);transform:scale(1.0771)}42%{-webkit-transform:scale(.9954);transform:scale(.9954)}45%{-webkit-transform:scale(.9057);transform:scale(.9057)}52%{-webkit-transform:scale(.9908);transform:scale(.9908)}56%{-webkit-transform:scale(1.0623);transform:scale(1.0623)}64%{-webkit-transform:scale(.9845);transform:scale(.9845)}}@-webkit-keyframes ldt-bounce-in{0%{-webkit-transform:scale(0);transform:scale(0)}5%{-webkit-transform:scale(.0846);transform:scale(.0846)}6%{-webkit-transform:scale(.191);transform:scale(.191)}7%{-webkit-transform:scale(.3255);transform:scale(.3255)}8%{-webkit-transform:scale(.4804);transform:scale(.4804)}9%{-webkit-transform:scale(.646);transform:scale(.646)}10%{-webkit-transform:scale(.8116);transform:scale(.8116)}11%{-webkit-transform:scale(.9665);transform:scale(.9665)}12%{-webkit-transform:scale(1.1);transform:scale(1.1)}13%{-webkit-transform:scale(1.2069);transform:scale(1.2069)}14%{-webkit-transform:scale(1.2796);transform:scale(1.2796)}19%{-webkit-transform:scale(1.1558);transform:scale(1.1558)}20%{-webkit-transform:scale(1.07);transform:scale(1.07)}21%{-webkit-transform:scale(.9823);transform:scale(.9823)}22%{-webkit-transform:scale(.901);transform:scale(.901)}23%{-webkit-transform:scale(.8328);transform:scale(.8328)}25%{-webkit-transform:scale(.7551);transform:scale(.7551)}29%{-webkit-transform:scale(.8516);transform:scale(.8516)}31%{-webkit-transform:scale(.973);transform:scale(.973)}33%{-webkit-transform:scale(1.0857);transform:scale(1.0857)}35%{-webkit-transform:scale(1.1538);transform:scale(1.1538)}40%{-webkit-transform:scale(1.0771);transform:scale(1.0771)}42%{-webkit-transform:scale(.9954);transform:scale(.9954)}45%{-webkit-transform:scale(.9057);transform:scale(.9057)}52%{-webkit-transform:scale(.9908);transform:scale(.9908)}56%{-webkit-transform:scale(1.0623);transform:scale(1.0623)}64%{-webkit-transform:scale(.9845);transform:scale(.9845)}}</style></svg></symbol><symbol id="sprite-search" viewBox="0 0 1024 1024"><title>search</title><path d="M460.801 102.4C262.862 102.4 102.4 262.861 102.4 460.801s160.461 358.401 358.401 358.401c197.939 0 358.401-160.461 358.401-358.401S658.741 102.4 460.801 102.4zM0 460.801C0 206.308 206.307 0 460.801 0c254.495 0 460.801 206.307 460.801 460.801 0 254.495-206.305 460.801-460.801 460.801C206.308 921.602 0 715.297 0 460.801z"/><path d="M713.877 713.877c19.994-19.994 52.413-19.994 72.407 0l222.72 222.72c19.994 19.994 19.994 52.413 0 72.407s-52.413 19.994-72.407 0l-222.72-222.72c-19.994-19.994-19.994-52.413 0-72.407z"/></symbol><symbol id="sprite-user" viewBox="0 0 1024 1024"><title>user</title><path d="M654.912 1023.996H369.146c-62.869 0-115.26-6.192-159.553-19.528-16.193-4.763-26.671-20.48-25.72-37.149 11.907-142.408 156.22-254.338 328.156-254.338s315.773 111.454 328.157 254.338c1.428 17.146-9.05 32.387-25.72 37.149-44.294 13.336-96.685 19.528-159.553 19.528zm-394.358-80.49c31.434 6.192 67.155 9.05 108.592 9.05h285.766c41.437 0 77.158-2.858 108.592-9.05-25.243-91.445-129.548-159.082-251.476-159.082S285.796 852.06 260.553 943.506z"/><path d="M87.857 87.862C151.416 24.304 246.523.004 369.116.004h285.768c122.594 0 217.703 24.3 281.258 87.858 63.56 63.559 87.859 158.666 87.859 281.259v285.768c0 92.904-13.884 169.751-48.099 229.224-35.064 60.94-89.331 99.948-161.735 120.441a35.717 35.717 0 01-45.322-31.358c-8.435-99.652-114.302-188.759-256.844-188.759s-248.409 89.107-256.842 188.759a35.718 35.718 0 01-45.323 31.358c-72.404-20.495-126.67-59.501-161.734-120.441C13.883 824.64.001 747.793.001 654.889V369.121c0-122.593 24.3-217.701 87.858-281.259zm50.517 50.517C94.769 181.984 71.441 253.574 71.441 369.12v285.768c0 87.13 13.266 149.595 38.582 193.593 18.725 32.545 45.169 56.944 82.157 73.862 35.456-124.152 170.185-209.349 319.819-209.349s284.363 85.197 319.817 209.349c36.993-16.918 63.436-41.317 82.158-73.862 25.319-43.999 38.583-106.463 38.583-193.593V369.12c0-115.547-23.328-187.137-66.931-230.741-43.608-43.605-115.197-66.933-230.743-66.933H369.115c-115.547 0-187.137 23.328-230.741 66.933zM512 309.586c-74.575 0-134.788 60.213-134.788 134.788 0 74.705 60.341 135.263 134.788 135.263s134.788-60.559 134.788-135.263c0-74.574-60.212-134.788-134.788-134.788zM305.771 444.373c0-114.031 92.198-206.229 206.229-206.229s206.229 92.199 206.229 206.229c0 113.902-92.07 206.705-206.229 206.705-114.162 0-206.229-92.803-206.229-206.705z"/><path d="M511.995 651.079c-113.83 0-206.228-92.875-206.228-206.705s92.398-206.229 206.228-206.229c113.831 0 206.229 92.399 206.229 206.229s-92.398 206.705-206.229 206.705zm0-341.493c-74.3 0-134.787 60.489-134.787 134.788 0 74.776 60.487 135.263 134.787 135.263s134.788-60.488 134.788-135.263c0-74.299-60.488-134.788-134.788-134.788z"/></symbol><symbol id="sprite-wallet" viewBox="0 0 1024 1024"><title>wallet</title><path d="M112 672.039c19.728 0 35.721 15.993 35.721 35.721 0 55.277 52.502 104.306 134.788 104.306 81.653 0 134.311-49.376 134.311-104.306 0-19.727 15.992-35.721 35.721-35.721s35.721 15.993 35.721 35.721v96.684c0 106.143-97.015 183.843-205.753 183.843-108.6 0-206.23-77.581-206.23-183.843V707.76c0-19.727 15.992-35.721 35.721-35.721zm47.798 178.394c20.497 37.693 65.497 66.412 122.711 66.412 57.248 0 102.119-28.786 122.443-66.622-35.226 21.523-78.292 33.282-122.443 33.282-44.264 0-87.417-11.645-122.711-33.073z"/><path d="M281.482 464.839c-38.977 0-72.863 13.36-96.945 34.478l-.029.024c-23.815 20.842-37.333 48.124-37.333 77.424 0 16.884 4.661 32.43 12.907 46.233 20.359 32.972 65.024 58.073 121.877 58.073 57.081 0 101.578-24.785 121.837-58.001 8.274-13.826 12.952-29.396 12.952-46.303 0-29.387-13.565-56.806-37.633-76.862l-.451-.377.003-.005c-24.375-20.999-58.459-34.682-97.185-34.682zm-144.048-19.237c37.834-33.177 88.722-52.204 144.048-52.204 55.469 0 106.075 19.579 143.593 51.809 38.673 32.33 63.114 79.129 63.114 131.558 0 30.682-8.635 58.897-23.19 83.154l-.109.186c-35.973 59.135-106.709 92.407-182.932 92.407-76.413 0-146.955-33.873-182.842-92.27l-.2-.324h.002c-14.555-24.257-23.186-52.471-23.186-83.154 0-52.619 24.582-98.681 61.731-131.187l-.029.026z"/><path d="M282.508 464.362c-79.461 0-134.788 54.763-134.788 112.401V707.74c0 54.815 52.995 104.306 134.788 104.306 81.74 0 134.311-48.971 134.311-104.306V576.763c0-29.387-13.589-57.077-37.23-77.809-24.368-20.947-58.409-34.592-97.081-34.592zM76.28 576.764c0-106.203 97.084-183.843 206.23-183.843 55.577 0 106.274 19.657 143.815 52l.208.179-.001.001c37.258 32.603 61.731 79.173 61.731 131.664v130.977c0 108.506-99.839 175.747-205.753 175.747-105.862 0-206.23-67.674-206.23-175.747V576.765zm765.305-162.413c-17.103 0-32.149 6.632-42.994 17.773l-.643.642c-12.669 12.367-19.747 29.978-17.965 48.686l.043.42h-.005c2.519 30.243 31.601 56.311 67.274 56.311h92.536c7.701-.495 12.726-6.515 12.726-12.855V427.21c0-6.34-5.029-12.36-12.726-12.857h-98.247zM747.72 381.96c24.371-24.855 57.782-39.052 93.865-39.052h99.066c.424 0 .852.007 1.276.023 45.39 1.621 82.072 38.35 82.072 84.276v98.118c0 45.928-36.688 82.653-82.072 84.273a38.79 38.79 0 01-1.276.024h-93.356c-67.136 0-132.292-49.09-138.449-121.609-3.848-41.061 11.783-79.424 38.873-106.054z"/><path d="M273.861 107.153c-11.633 0-22.672.831-33.147 2.443l-.983.137c-52.74 6.618-94.199 29.199-122.587 62.505-28.462 33.392-45.702 79.842-45.702 137.334v95.256c0 19.728-15.992 35.721-35.721 35.721S0 424.557 0 404.828v-95.256c0-72.055 21.815-135.625 62.772-183.677 40.932-48.023 99.074-78.28 167.572-86.985 14.135-2.148 28.651-3.198 43.516-3.198h428.651c12.845 0 26.71.465 40.698 2.72 69.084 8.222 127.881 38.283 169.355 86.344 41.579 48.182 63.807 112.178 63.807 184.796v69.061c0 19.728-15.993 35.721-35.721 35.721h-99.066c-17.099 0-32.139 6.631-42.989 17.775l-.643.642c-12.674 12.37-19.751 29.982-17.97 48.686l.043.42h-.005c2.519 30.243 31.601 56.311 67.279 56.311h93.351c19.727 0 35.721 15.993 35.721 35.721v69.061c0 79.558-26.676 148.632-75.952 197.908S782.068 916.83 702.511 916.83h-119.07c-19.727 0-35.721-15.993-35.721-35.721s15.993-35.721 35.721-35.721h119.07c63.326 0 113.321-20.951 147.394-55.025s55.025-84.068 55.025-147.394v-33.34H847.3c-67.132 0-132.296-49.09-138.455-121.609-3.848-41.065 11.788-79.427 38.879-106.055 24.367-24.852 57.773-39.053 93.86-39.053h63.345v-33.34c0-57.882-17.542-104.622-46.452-138.121-28.844-33.424-70.946-55.942-124.371-62.156a36.553 36.553 0 01-1.748-.247c-8.569-1.428-18.204-1.895-29.848-1.895H273.859z"/></symbol></svg>