<!-- Generated by IcoMoon.io -->
<svg version="1.1" xmlns="http://www.w3.org/2000/svg" width="1024" height="1024" viewBox="0 0 1024 1024">
<g id="icomoon-ignore">
</g>
<path d="M654.883 1023.999h-285.768c-258.62 0-369.116-110.496-369.116-369.116v-285.768c0-258.62 110.496-369.116 369.116-369.116h285.768c258.62 0 369.116 110.496 369.116 369.116v285.768c0 258.62-110.496 369.116-369.116 369.116zM369.117 71.441c-219.565 0-297.674 78.11-297.674 297.674v285.768c0 219.565 78.11 297.674 297.674 297.674h285.768c219.565 0 297.674-78.11 297.674-297.674v-285.768c0-219.565-78.11-297.674-297.674-297.674h-285.768z"></path>
<path d="M512.029 563.423c-6.192 0-12.383-1.428-18.098-4.763l-252.427-145.741c-17.146-10.002-22.863-31.91-12.86-48.58 10.002-17.146 31.911-22.862 48.581-12.859l234.329 135.74 232.9-134.787c17.146-10.002 39.055-3.811 48.58 12.859s3.811 39.055-12.859 48.58l-250.523 144.789c-5.239 2.858-11.431 4.763-17.623 4.763z"></path>
<path d="M512 822.538c-19.528 0-35.721-16.193-35.721-35.721v-259.096c0-19.528 16.193-35.721 35.721-35.721s35.721 16.193 35.721 35.721v259.096c0 19.528-16.193 35.721-35.721 35.721z"></path>
<path d="M512.009 833.478c-27.624 0-54.768-6.192-76.677-18.098l-152.412-84.778c-45.723-25.243-80.968-85.73-80.968-138.121v-161.459c0-51.914 35.722-112.402 80.968-138.121l152.412-84.778c43.818-24.29 109.54-24.29 153.357 0l152.409 84.778c45.723 25.243 80.972 85.73 80.972 138.121v161.459c0 51.915-35.726 112.402-80.972 138.121l-152.409 84.778c-21.909 12.383-49.057 18.098-76.681 18.098zM512.009 261.943c-15.717 0-30.959 2.858-41.913 9.050l-152.407 84.778c-23.337 12.859-44.296 49.057-44.296 75.252v161.459c0 26.671 20.957 62.393 44.296 75.252l152.407 84.778c21.909 12.383 61.916 12.383 83.825 0l152.409-84.778c23.337-12.859 44.299-49.057 44.299-75.252v-161.459c0-26.671-20.961-62.393-44.299-75.252l-152.409-84.778c-10.954-6.192-26.195-9.050-41.913-9.050z"></path>
</svg>
