<!-- Generated by IcoMoon.io -->
<svg version="1.1" xmlns="http://www.w3.org/2000/svg" width="1024" height="1024" viewBox="0 0 1024 1024">
<g id="icomoon-ignore">
</g>
<path d="M87.858 87.857c63.559-63.558 158.666-87.858 281.258-87.858h285.768c122.594 0 217.703 24.3 281.257 87.858 63.56 63.559 87.859 158.666 87.859 281.258v285.768c0 122.594-24.299 217.703-87.859 281.257-63.554 63.56-158.663 87.859-281.257 87.859h-285.768c-122.593 0-217.701-24.299-281.258-87.859-63.558-63.554-87.858-158.663-87.858-281.257v-285.768c0-122.593 24.3-217.701 87.858-281.258zM138.375 138.374c-43.605 43.605-66.933 115.195-66.933 230.741v285.768c0 115.545 23.328 187.135 66.933 230.743 43.605 43.603 115.195 66.931 230.741 66.931h285.768c115.545 0 187.135-23.328 230.743-66.931 43.603-43.608 66.931-115.197 66.931-230.743v-285.768c0-115.547-23.328-187.137-66.931-230.741-43.608-43.605-115.197-66.933-230.743-66.933h-285.768c-115.547 0-187.137 23.328-230.741 66.933z"></path>
<path d="M690.668 333.966c63.007 62.616 63.24 165.708-0.119 229.497-44.141 44.113-107.315 57.744-163.064 40.203-12.674-3.992-26.515-0.614-35.931 8.768l-123.356 122.88c-0.1 0.1-0.201 0.2-0.3 0.3-0.083 0.057-0.202 0.129-0.358 0.219-0.71 0.414-1.801 0.929-3.177 1.381-1.369 0.448-2.675 0.719-3.73 0.838-0.672 0.076-1.061 0.072-1.174 0.072l-57.835-7.71c0.001 0 0.006 0 0 0-0.133-0.034-2.060-0.519-4.555-3.053-2.473-2.519-3.4-4.939-3.593-5.849l-7.544-56.582-0.029-0.2c0.006-0.129 0.021-0.348 0.060-0.657 0.121-0.958 0.406-2.291 0.921-3.82 0.512-1.524 1.133-2.891 1.729-3.949 0.345-0.614 0.601-0.981 0.719-1.143l122.19-122.189c9.356-9.355 12.773-23.114 8.883-35.764-17.254-56.076-3.842-119.302 40.174-163.319 63.167-63.165 166.343-63.275 230.088 0.078zM741.029 283.294c-91.522-90.961-239.816-91.073-330.967 0.077-58.024 58.024-78.911 138.891-63.435 213.465l-109.175 109.192c-8.746 9.231-14.721 20.856-18.287 31.463-3.489 10.378-5.986 23.705-4.011 37.164l7.583 56.867 0.102 0.71c2.738 17.804 11.852 33.582 23.29 45.218 11.41 11.602 27.461 21.409 46.471 23.833l56.822 7.573c13.116 1.882 26.326-0.195 37.189-3.753 10.661-3.495 22.806-9.649 32.295-19.465l108.605-108.187c74.809 15.87 155.69-5.605 213.592-63.511l0.081-0.076c90.917-91.479 91.14-239.834-0.158-330.568z"></path>
<path d="M372.582 649.483c14.031-13.869 36.648-13.736 50.516 0.296l40.485 40.96c13.869 14.031 13.735 36.65-0.295 50.514-14.031 13.869-36.648 13.736-50.516-0.296l-40.485-40.96c-13.868-14.031-13.736-36.645 0.295-50.514z"></path>
<path d="M530.79 450.084c0-26.304 21.323-47.627 47.627-47.627h0.429c26.305 0 47.627 21.324 47.627 47.627s-21.323 47.627-47.627 47.627h-0.429c-26.305 0-47.627-21.323-47.627-47.627z"></path>
</svg>
