<!-- Generated by IcoMoon.io -->
<svg version="1.1" xmlns="http://www.w3.org/2000/svg" width="1024" height="1024" viewBox="0 0 1024 1024">
<g id="icomoon-ignore">
</g>
<path d="M511.998 1024c-32.259 0-65.003-7.221-90.517-22.15l-264.818-152.629c-107.853-72.707-114.594-83.779-114.594-197.892v-278.297c0-114.113 6.26-125.188 112.187-196.928l266.742-154.075c50.557-29.37 130.001-29.37 180.558 0l265.781 153.112c107.851 72.703 114.595 83.777 114.595 197.892v277.817c0 114.111-6.262 125.185-112.187 196.927l-266.745 154.073c-26 14.928-58.74 22.15-91 22.15zM511.998 72.582c-20.222 0-39.963 3.853-53.929 12.038l-264.817 153.112c-78.482 52.962-78.482 52.962-78.482 135.298v277.817c0 82.332 0 82.332 80.407 136.741l262.889 151.669c28.408 16.369 79.928 16.369 108.337 0l264.817-153.112c78.002-52.966 78.002-52.966 78.002-135.298v-277.817c0-82.334 0-82.334-80.405-136.744l-262.893-151.669c-13.964-8.185-33.707-12.038-53.929-12.038z"></path>
<path d="M511.989 692.746c-99.667 0-180.556-80.89-180.556-180.556s80.89-180.556 180.556-180.556c99.667 0 180.556 80.89 180.556 180.556s-80.89 180.556-180.556 180.556zM511.989 403.853c-59.706 0-108.337 48.631-108.337 108.337s48.631 108.337 108.337 108.337c59.706 0 108.337-48.631 108.337-108.337s-48.631-108.337-108.337-108.337z"></path>
</svg>
