<!-- Generated by IcoMoon.io -->
<svg version="1.1" xmlns="http://www.w3.org/2000/svg" width="1024" height="1024" viewBox="0 0 1024 1024">
<g id="icomoon-ignore">
</g>
<path d="M460.801 102.4c-197.939 0-358.401 160.461-358.401 358.401s160.461 358.401 358.401 358.401c197.939 0 358.401-160.461 358.401-358.401s-160.461-358.401-358.401-358.401zM0 460.801c0-254.493 206.307-460.801 460.801-460.801 254.495 0 460.801 206.307 460.801 460.801 0 254.495-206.305 460.801-460.801 460.801-254.493 0-460.801-206.305-460.801-460.801z"></path>
<path d="M713.877 713.877c19.994-19.994 52.413-19.994 72.407 0l222.72 222.72c19.994 19.994 19.994 52.413 0 72.407s-52.413 19.994-72.407 0l-222.72-222.72c-19.994-19.994-19.994-52.413 0-72.407z"></path>
</svg>
