<!-- Generated by IcoMoon.io -->
<svg version="1.1" xmlns="http://www.w3.org/2000/svg" width="1024" height="1024" viewBox="0 0 1024 1024">
<g id="icomoon-ignore">
</g>
<path d="M654.912 1023.996h-285.766c-62.869 0-115.26-6.192-159.553-19.528-16.193-4.763-26.671-20.48-25.72-37.149 11.907-142.408 156.22-254.338 328.156-254.338s315.773 111.454 328.157 254.338c1.428 17.146-9.050 32.387-25.72 37.149-44.294 13.336-96.685 19.528-159.553 19.528zM260.554 943.506c31.434 6.192 67.155 9.050 108.592 9.050h285.766c41.437 0 77.158-2.858 108.592-9.050-25.243-91.445-129.548-159.082-251.476-159.082s-226.232 67.636-251.475 159.082z"></path>
<path d="M87.857 87.862c63.559-63.558 158.666-87.858 281.259-87.858h285.768c122.594 0 217.703 24.3 281.258 87.858 63.56 63.559 87.859 158.666 87.859 281.259v285.768c0 92.904-13.884 169.751-48.099 229.224-35.064 60.94-89.331 99.948-161.735 120.441-10.264 2.905-21.285 1.076-30.053-4.991-8.773-6.068-14.374-15.737-15.269-26.367-8.435-99.652-114.302-188.759-256.844-188.759s-248.409 89.107-256.842 188.759c-0.899 10.631-6.5 20.299-15.269 26.367s-19.793 7.896-30.054 4.991c-72.404-20.495-126.67-59.501-161.734-120.441-34.219-59.473-48.101-136.32-48.101-229.224v-285.768c0-122.593 24.3-217.701 87.858-281.259zM138.374 138.379c-43.605 43.605-66.933 115.195-66.933 230.741v285.768c0 87.13 13.266 149.595 38.582 193.593 18.725 32.545 45.169 56.944 82.157 73.862 35.456-124.152 170.185-209.349 319.819-209.349s284.363 85.197 319.817 209.349c36.993-16.918 63.436-41.317 82.158-73.862 25.319-43.999 38.583-106.463 38.583-193.593v-285.768c0-115.547-23.328-187.137-66.931-230.741-43.608-43.605-115.197-66.933-230.743-66.933h-285.768c-115.547 0-187.137 23.328-230.741 66.933zM512 309.586c-74.575 0-134.788 60.213-134.788 134.788 0 74.705 60.341 135.263 134.788 135.263s134.788-60.559 134.788-135.263c0-74.574-60.212-134.788-134.788-134.788zM305.771 444.373c0-114.031 92.198-206.229 206.229-206.229s206.229 92.199 206.229 206.229c0 113.902-92.070 206.705-206.229 206.705-114.162 0-206.229-92.803-206.229-206.705z"></path>
<path d="M511.995 651.079c-113.83 0-206.228-92.875-206.228-206.705s92.398-206.229 206.228-206.229c113.831 0 206.229 92.399 206.229 206.229s-92.398 206.705-206.229 206.705zM511.995 309.586c-74.3 0-134.787 60.489-134.787 134.788 0 74.776 60.487 135.263 134.787 135.263s134.788-60.488 134.788-135.263c0-74.299-60.488-134.788-134.788-134.788z"></path>
</svg>
